<svg width="512" height="379" viewBox="0 0 512 379" fill="none" xmlns="http://www.w3.org/2000/svg">
<path fill-rule="evenodd" clip-rule="evenodd" d="M168.282 2.57866C120.062 12.5787 71.7091 38.4437 59.0771 60.9967C29.4711 113.853 6.83311 201.354 0.0501066 289.148C-1.42189 308.21 29.6691 336.811 76.1021 359.108C136.07 387.904 158.144 385.736 187.602 348.16L208.102 322.01L217.602 322.754C229.716 323.702 281.129 323.721 293.602 322.782L303.102 322.067L323.602 348.188C347.416 378.532 346.762 377.988 359.474 377.993C404.81 378.011 459.03 353.453 499.31 314.657C513.523 300.967 513.429 301.654 507.537 254.497C496.783 168.433 466.408 70.7057 443.174 47.4177C424.758 28.9597 351.31 -0.0153388 322.976 0.000661204C310.927 0.0066612 311.582 -0.729338 294.602 31.8887L283.102 53.9797H255.602H228.102L216.602 31.8887C202.228 4.27766 202.298 4.39167 198.361 1.99167C193.86 -0.753334 183.36 -0.548336 168.282 2.57866ZM189.028 43.9257C192.644 51.0357 195.602 57.0577 195.602 57.3067C195.602 57.5567 191.215 58.5307 185.852 59.4717C150.146 65.7367 107.434 80.0777 99.6651 88.4097C96.2011 92.1257 95.6361 101.133 98.5741 105.815C103.337 113.407 111.126 114.359 123.287 108.835C196.332 75.6567 314.872 75.6567 387.917 108.835C411.946 119.749 427.571 95.1987 404.175 83.2907C386.815 74.4557 352.913 64.1827 325.613 59.4847C320.394 58.5867 315.971 57.6987 315.783 57.5107C314.526 56.2537 328.952 30.9967 330.926 30.9977C344.743 31.0067 389.1 48.4587 413.981 63.6777C439.124 79.0547 469.506 177.466 479.994 277.497L481.357 290.497L476.73 294.856C445.709 324.074 398.923 346.635 367.881 347.345L361.234 347.497L349.418 332.521C335.6 315.009 336.098 316.449 343.352 314.952C372.304 308.974 411.329 293.501 431.041 280.184C454.282 264.483 438.32 240.452 414.496 255.276C330.658 307.443 178.857 307.187 95.8121 254.74C72.8441 240.234 57.6351 264.965 80.1631 280.184C99.7791 293.436 139.041 309.003 167.852 314.952C175.106 316.449 175.604 315.009 161.786 332.521L149.97 347.497L143.499 347.356C113.757 346.71 72.6291 327.549 38.5761 298.475C29.1401 290.419 29.4621 292.184 32.6011 265.717C44.0371 169.271 73.1031 78.3977 97.2201 63.6897C119.658 50.0047 151.878 36.5277 172.602 32.1597C182.437 30.0867 181.736 29.5847 189.028 43.9257ZM173.874 137.434C131.658 147.663 116.808 204.885 147.871 237.633C178.338 269.752 228.115 252.713 237.183 207.061C245.23 166.548 210.654 128.522 173.874 137.434ZM315.236 137.583C280.814 145.915 262.795 188.138 278.998 222.497C298.33 263.489 352.662 264.585 372.904 224.391C395.328 179.863 360.037 126.739 315.236 137.583ZM193.651 168.747C217.492 180.871 210.347 223.997 184.497 223.997C164.748 223.997 154.076 195.721 166.657 176.727C173.29 166.713 183.637 163.654 193.651 168.747ZM337.096 169.441C354.794 179.812 353.817 212.704 335.534 222.031C317.39 231.288 298.147 209.937 304.009 187.053C308.467 169.652 323.658 161.566 337.096 169.441Z" fill="#2FEA91"/>
</svg>
