<svg width="290" height="511" viewBox="0 0 290 511" fill="none" xmlns="http://www.w3.org/2000/svg">
<path fill-rule="evenodd" clip-rule="evenodd" d="M179.15 0.668039C111.299 9.96388 74.5753 58.2216 72.9805 140.185L72.3587 172.122L44.4133 172.621C13.0116 173.182 13.4946 173.076 6.26177 180.924C0.074856 187.635 0.0119733 188.209 0.00598501 237.548L0 282.015L2.58495 287.202C8.80879 299.692 14.1384 301.37 47.5891 301.37H72.8577V396.716C72.8577 523.369 65.4392 510.461 138.23 510.461C192.299 510.461 190.22 510.745 197.584 502.359C203.942 495.118 203.602 501.065 203.602 396.777V301.493L236.288 301.182C272.423 300.838 272.79 300.775 279.817 293.749C287.059 286.506 286.905 287.628 287.26 239.99C287.663 186.15 287.082 183.178 274.755 175.932L269.973 173.12L237.037 172.621L204.101 172.122L204.15 153.159C204.234 120.849 201.16 123.393 240.981 122.683C274.072 122.092 275.623 121.82 282.287 115.432C290.161 107.884 289.934 109.506 289.934 60.8395C289.934 -3.88207 293.816 -0.111439 227.405 0.108132C202.511 0.189973 180.797 0.442479 179.15 0.668039ZM260.256 60.59L259.992 92.2781L233.045 92.86C179.687 94.0117 172.913 102.485 173.83 166.939C174.353 203.636 172.711 202.454 223.314 202.519L257.497 202.563V236.995V271.428H221.952C181.97 271.428 181.919 271.437 176.638 279.143L174.16 282.759L173.887 381.888L173.614 481.019H138.23H102.846L102.573 381.888L102.3 282.759L99.822 279.143C94.6461 271.59 93.8108 271.428 59.9968 271.428H29.9415V236.995V202.563L58.6355 202.519C104.901 202.448 102.047 205.823 102.909 150.165C103.51 111.39 103.601 109.971 106.095 100.762C116.5 62.3416 141.118 38.7117 178.279 31.4739C189.693 29.2512 190.003 29.2362 226.821 29.0616L260.519 28.9019L260.256 60.59Z" fill="#2FEA91"/>
</svg>
