<svg width="512" height="429" viewBox="0 0 512 429" fill="none" xmlns="http://www.w3.org/2000/svg">
<path fill-rule="evenodd" clip-rule="evenodd" d="M404.521 0.693502C389.244 2.9755 373.297 13.0185 365.292 25.3995L363.795 27.7155L322.295 17.7545C299.47 12.2755 280.659 7.9195 280.492 8.0745C280.326 8.2295 271.604 33.0455 261.111 63.2205C238.755 127.509 243.396 119.205 229.082 120.525C190.693 124.065 149.21 136.299 121.514 152.249L116.232 155.292L107.782 151.049C26.1001 110.056 -43.6659 234.199 33.2991 283.587C37.2131 286.099 38.2981 287.367 38.3101 289.439C38.4921 320.7 73.4281 367.561 114.831 392.082C249.055 471.573 455.156 415.144 476.406 293.085L477.625 286.085L486.009 278.207C550.115 217.978 483.818 112.466 405.784 150.529L398.007 154.322L386.778 148.576C355.106 132.372 304.845 119.585 272.823 119.585C270.883 119.585 269.295 119.364 269.295 119.094C269.295 118.005 296.602 40.0295 297.228 39.3295C297.6 38.9145 310.705 41.6555 326.35 45.4195L354.795 52.2635L355.372 61.1735C358.656 111.833 418.927 134.961 454.399 99.1735C493.661 59.5635 459.672 -7.5455 404.521 0.693502ZM418.861 26.6615C456.959 33.5775 451.984 90.0445 413.274 90.0775C371.189 90.1145 370.364 31.8835 412.361 25.6685C412.673 25.6225 415.598 26.0695 418.861 26.6615ZM287.795 146.734C407.889 158.096 483.247 243.974 439.651 319.79C379.545 424.316 158.545 431.863 83.7241 331.943C13.3211 237.924 130.226 131.825 287.795 146.734ZM87.3961 170.732L91.0411 171.825L78.3721 184.454C59.3051 203.463 47.6021 222.365 41.6201 243.814C38.5381 254.862 38.0021 254.973 32.9121 245.622C11.6851 206.621 46.6711 158.531 87.3961 170.732ZM446.496 169.697C479.731 176.668 497.143 218.601 478.599 247.008L476.038 250.931L472.702 240.736C465.053 217.357 448.684 193.168 429.949 177.56C426.34 174.554 423.754 171.725 424.204 171.275C426.407 169.072 439.203 168.167 446.496 169.697ZM170.581 214.97C134.851 226.687 139.265 277.655 176.394 282.107C202.328 285.216 222.284 257.376 211.175 233.585C204.223 218.697 185.457 210.091 170.581 214.97ZM318.795 214.923C284.574 226.258 287.036 274.357 322.212 281.673C349.265 287.299 371.371 258.03 359.144 232.772C352.311 218.658 333.133 210.174 318.795 214.923ZM174.565 324.014C164.191 328.692 165.087 340.974 176.36 348.629C215.723 375.36 269.586 379.604 313.28 359.417C339.634 347.241 346.854 339.112 340.647 328.604C336.115 320.931 329.814 321.038 315.413 329.035C272.819 352.688 229.745 352.379 192.293 328.151C184.09 322.845 179.522 321.779 174.565 324.014Z" fill="#2FEA91"/>
</svg>
