<svg width="448" height="513" viewBox="0 0 448 513" fill="none" xmlns="http://www.w3.org/2000/svg">
<path fill-rule="evenodd" clip-rule="evenodd" d="M232.466 2.41954C224.352 7.12454 225.128 -10.6345 224.566 183.286L224.066 355.786L221.831 362.358C208.022 402.958 157.293 414.964 127.043 384.791C91.7057 349.544 116.928 287.491 166.668 287.303C171.774 287.284 176.467 284.696 179.974 279.964C182.011 277.216 182.073 275.994 182.341 233.464L182.616 189.786L180.341 185.36C171.671 168.492 113.399 179.315 74.9687 204.932C-21.5053 269.239 -25.6083 409.404 66.9547 478.637C158.119 546.823 289.97 505.862 326.01 398.159C334.345 373.249 333.987 378.18 334.333 283.536C334.503 237.198 334.783 199.286 334.957 199.286C335.131 199.286 339.569 201.293 344.819 203.747C379.588 219.994 431.709 228.246 442.075 219.144C447.574 214.316 447.708 212.96 447.372 165.608C446.992 111.946 447.809 113.922 425.276 112.198C376.097 108.438 338.752 70.2785 335.091 20.0465C334.282 8.95454 332.394 4.97554 326.546 2.03754C320.698 -0.900457 237.609 -0.563457 232.466 2.41954ZM305.951 32.5355C316.722 89.8625 354.795 130.011 408.066 140.217L417.066 141.942L417.333 167.245L417.601 192.548L411.333 191.864C386.259 189.127 357.327 178.575 335.566 164.228C321.471 154.936 313.062 154.929 307.292 164.206L305.066 167.786L304.494 266.786C303.983 355.232 303.741 366.532 302.224 372.786C264.438 528.589 40.1657 511.565 29.9797 352.121C25.5437 282.691 87.6507 208.286 150.041 208.286H152.6L152.333 233.412L152.066 258.538L145.066 260.356C87.0057 275.436 61.1567 346.075 95.9307 394.626C138.689 454.324 229.263 439.256 251.257 368.786L254.066 359.786L254.336 195.036L254.606 30.2855H280.067H305.528L305.951 32.5355Z" fill="#2FEA91"/>
</svg>
