<svg width="513" height="359" viewBox="0 0 513 359" fill="none" xmlns="http://www.w3.org/2000/svg">
<path fill-rule="evenodd" clip-rule="evenodd" d="M80.1618 2.12428C39.8978 10.6273 8.81075 43.0653 1.62975 84.0693C-0.54325 96.4743 -0.54325 261.902 1.62975 274.307C8.90975 315.876 41.1258 348.855 82.0218 356.604C95.9248 359.238 418.8 358.959 431.675 356.301C472.974 347.777 505.299 313.388 511.08 271.824C511.786 266.743 512.162 234.598 512.162 179.188C512.162 123.778 511.786 91.6333 511.08 86.5523C505.212 44.3653 472.148 9.71229 430.165 1.74829C416.697 -0.806715 92.3908 -0.458715 80.1618 2.12428ZM434.28 33.7733C456.031 41.5613 472.292 58.6783 479.32 81.1883L481.662 88.6883V179.188V269.688L479.32 277.188C471.557 302.05 452.972 319.971 428.448 326.243C416.484 329.302 95.7548 329.281 83.7848 326.22C57.9248 319.606 36.9368 297.74 31.7218 271.98C29.3838 260.428 29.3838 97.9483 31.7218 86.3963C36.9448 60.5933 57.5138 39.0003 83.3368 32.2103C90.4438 30.3413 95.6567 30.2893 258.162 30.4863L425.662 30.6883L434.28 33.7733ZM199.254 83.3493C190.963 89.0393 191.662 80.3083 191.662 178.188C191.662 275.977 190.982 267.378 199.152 272.938C206.967 278.257 201.517 280.975 282.662 231.282C354.018 187.584 352.352 188.788 352.933 180.486C353.626 170.589 356.119 172.5 280.313 124.843C204.807 77.3763 206.611 78.3003 199.254 83.3493ZM266.919 151.89C290.19 166.517 309.102 178.851 308.946 179.299C308.686 180.044 222.524 233.188 221.575 233.188C221.348 233.188 221.162 208.615 221.162 178.581C221.162 127.316 221.267 124.014 222.885 124.635C223.832 124.999 243.647 137.263 266.919 151.89Z" fill="#2FEA91"/>
</svg>
