<svg width="513" height="513" viewBox="0 0 513 513" fill="none" xmlns="http://www.w3.org/2000/svg">
<path fill-rule="evenodd" clip-rule="evenodd" d="M121.532 1.45375C64.5042 9.45975 18.6042 50.4847 4.58625 105.978C3.26625 111.203 1.70325 119.528 1.11225 124.478C-0.37075 136.901 -0.37075 375.055 1.11225 387.478C8.06725 445.753 49.5282 493.151 106.032 507.424C111.257 508.744 119.582 510.307 124.532 510.898C136.955 512.381 375.109 512.381 387.532 510.898C440.057 504.629 483.973 470.355 503.056 420.737C506.145 412.705 509.757 397.491 510.952 387.478C512.435 375.055 512.435 136.901 510.952 124.478C504.683 71.9527 470.409 28.0367 420.791 8.95375C412.759 5.86475 397.545 2.25275 387.532 1.05775C373.845 -0.576252 133.44 -0.218252 121.532 1.45375ZM383.243 31.0897C434.876 36.6717 475.338 77.1338 480.92 128.767C482.464 143.052 482.464 368.904 480.92 383.189C475.338 434.822 434.876 475.284 383.243 480.866C368.958 482.41 143.106 482.41 128.821 480.866C77.1883 475.284 36.7262 434.822 31.1442 383.189C29.6002 368.904 29.6002 143.052 31.1442 128.767C33.7902 104.296 43.6513 82.9137 60.5243 65.0637C78.3183 46.2387 102.793 33.8407 127.532 31.1197C139.822 29.7677 370.764 29.7407 383.243 31.0897ZM391.306 66.8997C376.426 71.9707 365.509 85.1167 362.943 101.052C360.383 116.944 367.703 133.255 381.505 142.416C390.411 148.328 400.876 150.691 410.958 149.067C427.336 146.43 440.833 134.841 445.519 119.394C447.522 112.792 447.448 100.566 445.368 94.4057C440.975 81.3967 430.579 70.9977 417.604 66.6347C411.04 64.4277 398.178 64.5567 391.306 66.8997ZM410.992 96.6137C421.581 102.869 417.167 119.251 404.892 119.251C398.085 119.251 392.759 113.925 392.759 107.118C392.759 97.8237 403.027 91.9077 410.992 96.6137ZM233.032 117.524C217.052 120.297 199.568 126.553 186.532 134.162C142.273 159.994 115.999 205.405 116.053 255.978C116.093 294.159 130.162 328.204 156.984 355.026C183.815 381.857 217.913 395.943 256.032 395.943C294.151 395.943 328.249 381.857 355.08 355.026C381.911 328.195 395.997 294.097 395.997 255.978C395.997 217.859 381.911 183.761 355.08 156.93C333.972 135.822 307.771 122.39 278.032 117.43C267.59 115.689 243.312 115.739 233.032 117.524ZM274.597 147.517C327.334 156.714 366.032 202.617 366.032 255.978C366.032 316.52 316.574 365.978 256.032 365.978C195.49 365.978 146.032 316.52 146.032 255.978C146.032 188.128 207.947 135.895 274.597 147.517Z" fill="#2FEA91"/>
</svg>
