<svg width="512" height="433" viewBox="0 0 512 433" fill="none" xmlns="http://www.w3.org/2000/svg">
<path fill-rule="evenodd" clip-rule="evenodd" d="M466.258 1.27234C463.508 2.05234 425.933 16.1713 382.758 32.6493C339.583 49.1273 241.483 86.5583 164.758 115.829C88.0328 145.099 22.3998 170.435 18.9078 172.131C11.9988 175.486 4.8918 181.748 2.2948 186.77C-0.291196 191.77 -0.733196 198.848 1.1808 204.61C3.2448 210.825 10.8238 218.335 18.7578 222.028C21.7828 223.436 45.2628 230.607 70.9348 237.964L117.611 251.339L142.773 323.34C159.39 370.889 169.108 397.278 171.391 401.045C175.643 408.062 182.488 414.281 189.758 417.731C194.552 420.006 196.541 420.34 205.258 420.334C213.614 420.328 216.12 419.938 220.501 417.964C228.742 414.25 232.702 411.006 262.771 383.341C278.314 369.041 291.391 357.341 291.83 357.341C292.269 357.341 310.765 371.956 332.932 389.819C355.098 407.682 375.425 423.771 378.102 425.572C389.003 432.908 405.232 434.837 415.975 430.074C424.926 426.105 433.583 416.242 437.273 405.808C438.143 403.351 455.132 321.241 475.028 223.341C507.905 61.5713 511.199 44.4753 511.161 35.8413C511.089 19.6843 505.561 9.82334 493.151 3.71434C485.393 -0.104661 474.583 -1.08666 466.258 1.27234ZM480.558 31.0413C481.218 31.7013 481.758 33.6173 481.758 35.2983C481.758 40.5383 409.771 394.146 407.966 397.772C403.318 407.11 400.939 405.982 365.955 377.849C270.301 300.926 247.258 282.156 247.258 281.164C247.258 280.556 282.133 243.033 324.758 197.779C367.383 152.525 403.083 114.237 404.091 112.694C406.488 109.026 406.477 101.774 404.068 97.5763C402.066 94.0853 394.86 89.8413 390.938 89.8413C388.386 89.8413 376.842 95.6433 224.99 173.249L127.721 222.959L82.7458 210.15C58.0088 203.105 37.7738 197.116 37.7778 196.841C37.7828 196.566 66.6918 185.339 102.022 171.891C137.352 158.444 186.733 139.62 211.758 130.06C236.783 120.5 271.208 107.351 288.258 100.84C324.339 87.0613 470.548 31.3583 472.758 30.5483C475.438 29.5673 479.33 29.8133 480.558 31.0413ZM316.1 163.091C296.036 184.022 212.406 273.457 211.31 275.155C210.534 276.357 205.313 296.016 199.707 318.841C194.101 341.666 189.232 360.866 188.886 361.507C188.541 362.149 179.139 336.543 167.993 304.606C156.847 272.669 147.847 246.451 147.993 246.345C148.489 245.983 244.128 197.155 280.258 178.816C300.058 168.766 316.686 160.161 317.208 159.692C317.73 159.224 318.612 158.841 319.166 158.841C319.721 158.841 318.341 160.753 316.1 163.091ZM251.021 323.783C260.226 331.176 267.723 337.476 267.68 337.783C267.565 338.608 214.627 387.045 214.256 386.665C214.081 386.487 217.932 370.141 222.813 350.341C227.694 330.541 231.945 313.297 232.26 312.02C232.574 310.743 233.158 309.843 233.558 310.02C233.957 310.197 241.816 316.39 251.021 323.783Z" fill="#2FEA91"/>
</svg>
