<svg width="512" height="446" viewBox="0 0 512 446" fill="none" xmlns="http://www.w3.org/2000/svg">
<path fill-rule="evenodd" clip-rule="evenodd" d="M473 2.20203C469.975 3.47103 457.15 9.68703 444.5 16.015C431.85 22.343 418.689 28.772 415.253 30.301L409.006 33.081L402.056 29.974C363.142 12.574 314.854 21.433 283.651 51.698C259.186 75.428 245.997 105.896 244.302 142.599L243.688 155.887L239.094 155.28C167.378 145.803 107.691 105.096 71.254 40.811C66.55 32.512 63.061 29.619 57.058 29.043C50.696 28.431 46.789 30.027 43.032 34.771C38.712 40.225 32.321 52.518 29.514 60.771C26.721 68.982 23.991 85.705 24.018 94.439C24.056 107.018 28.236 126.094 33.448 137.479C34.868 140.579 35.834 143.31 35.596 143.549C35.358 143.787 31.349 142.818 26.687 141.396C16.625 138.327 12.659 138.172 8.009 140.666C4.305 142.653 0 149.513 0 153.43C0 154.697 0.921 159.688 2.047 164.522C10.676 201.583 32.174 230.222 65.708 249.335L73.206 253.609L67.853 255.135C64.909 255.974 60.516 257.181 58.09 257.817C52.134 259.38 49.779 261.08 47.189 265.688C41.856 275.178 45.639 282.195 63.923 296.726C84.197 312.839 108.7 325.115 136.795 333.233C143.007 335.028 148.094 336.828 148.1 337.232C148.116 338.526 137.089 345.739 128.111 350.308C117.132 355.895 103.895 360.238 89.632 362.931C80.608 364.635 73.388 365.116 51.5 365.472C20.718 365.972 17.602 366.559 13.473 372.636C10.533 376.962 10.19 383.301 12.617 388.417C14.396 392.166 23.081 399.415 32.696 405.177C58.926 420.896 113.021 436.7 159.5 442.223C226.53 450.188 289.877 442.878 339 421.508C366.924 409.36 387.814 394.924 409.662 372.677C453.005 328.542 478.223 278.79 487.675 218.766C490.199 202.737 490.18 162.78 487.639 144.059L485.841 130.807L498.051 111.188C504.767 100.398 510.712 90.1 511.263 88.304C513.473 81.104 509.458 73.412 501.914 70.393C498.405 68.989 496.391 68.902 487.804 69.783C482.295 70.348 476.034 70.811 473.89 70.811H469.992L482.477 45.857C489.344 32.132 495.221 19.195 495.537 17.107C496.404 11.394 492.763 4.94803 487.038 2.06103C481.528 -0.717968 479.924 -0.701969 473 2.20203ZM446 50.27C446 50.523 442.175 58.442 437.5 67.869C428.358 86.303 427.587 89.493 430.752 95.791C431.713 97.705 434.029 100.293 435.898 101.541C439.613 104.023 445.598 104.379 459.75 102.96C463.738 102.561 467 102.446 467 102.706C467 102.965 464.413 107.453 461.25 112.678C455.798 121.686 455.5 122.52 455.5 128.745C455.5 132.356 456.365 142.061 457.423 150.311C459.61 167.367 459.918 194.762 458.085 209.311C451.378 262.571 428.794 308.706 389.259 349.913C367.117 372.991 341.761 389.086 310.878 399.665C251.056 420.157 168.074 419.682 97 398.442C90.675 396.551 86.175 394.765 87 394.473C87.825 394.18 91.875 393.41 96 392.761C115.709 389.664 139.417 380.536 156.214 369.579C171.742 359.45 193.65 339.491 195.986 333.347C198.672 326.283 195.874 318.394 189.329 314.571C187.588 313.554 180.967 311.834 174.616 310.747C152.808 307.017 131.339 300.397 113.5 291.903C104.142 287.448 92 280.324 92 279.29C92 279.038 94.938 277.499 98.529 275.87C109.402 270.941 122.018 262.83 124.084 259.441C126.604 255.308 126.631 247.288 124.137 243.506C121.394 239.346 119.134 238.094 107.279 234.17C82.972 226.124 67.583 216.604 53.643 200.991C47.37 193.964 37.999 179.792 38.001 177.332C38.001 176.684 43.383 176.311 52.751 176.311C62.149 176.311 68.801 175.849 71.085 175.038C78.521 172.397 83.011 164.279 81.055 157.014C80.463 154.816 77.343 149.832 73.972 145.699C67.219 137.418 60.003 123.598 57.323 113.811C55.236 106.191 54.704 79.706 56.599 77.812C57.397 77.014 59.483 79.12 64.226 85.512C108.398 145.047 174.731 181.182 250.28 186.867C264.001 187.899 264.407 187.872 268.786 185.617C275.205 182.311 277.273 178.115 276.572 169.811C274.191 141.603 274.864 129.688 279.706 114.335C292.297 74.41 324.843 50.216 363.448 52.084C376.502 52.716 384.686 55.015 397 61.512C408.075 67.355 409.477 67.181 429.122 57.534C444.236 50.111 446 49.352 446 50.27Z" fill="#2FEA91"/>
</svg>
